<?xml version="1.0" standalone="no"?>
<!DOCTYPE svg PUBLIC "-//W3C//DTD SVG 20010904//EN"
 "http://www.w3.org/TR/2001/REC-SVG-20010904/DTD/svg10.dtd">
<svg version="1.0" xmlns="http://www.w3.org/2000/svg"
 width="347.000000pt" height="347.000000pt" viewBox="0 0 347.000000 347.000000"
 preserveAspectRatio="xMidYMid meet">
<metadata>
Created by potrace 1.14, written by Peter Selinger 2001-2017
</metadata>
<g transform="translate(0.000000,347.000000) scale(0.100000,-0.100000)"
fill="#000000" stroke="none">
<path d="M1560 3463 c-163 -22 -293 -53 -410 -95 -577 -209 -991 -690 -1117
-1297 -22 -106 -26 -154 -27 -301 -1 -158 6 -280 19 -335 36 -159 51 -213 77
-285 39 -108 81 -198 130 -279 21 -34 38 -65 38 -68 0 -2 15 -24 33 -48 17
-23 41 -56 52 -71 40 -55 98 -121 178 -198 263 -255 606 -421 977 -471 94 -13
408 -13 460 -1 14 4 43 9 65 12 22 3 81 16 132 29 565 147 1015 563 1207 1113
20 57 38 113 40 125 2 12 11 51 19 87 24 105 31 185 31 355 0 145 -10 289 -21
307 -2 4 -5 20 -7 35 -6 45 -33 141 -66 238 -107 308 -318 596 -588 803 -45
34 -84 62 -87 62 -2 0 -24 14 -49 30 -151 102 -402 197 -626 237 -77 14 -396
25 -460 16z"/>
</g>
</svg>
